{
  "accessors": [
    {
      "bufferView": 2,
      "componentType": 5126,
      "count": 1808,
      "max": [
        119.17781829833984,
        527.029296875,
        67.612419128417969
      ],
      "min": [
        -119.17784118652344,
        0.74981421232223511,
        -114.41755676269531
      ],
      "type": "VEC3"
    },
    {
      "bufferView": 2,
      "byteOffset": 21696,
      "componentType": 5126,
      "count": 1808,
      "max": [
        1,
        1,
        1
      ],
      "min": [
        -1,
        -1,
        -1
      ],
      "type": "VEC3"
    },
    {
      "bufferView": 3,
      "componentType": 5126,
      "count": 1808,
      "max": [
        0.99999374151229858,
        0.99996268749237061,
        0.9999997615814209,
        1
      ],
      "min": [
        -1,
        -0.99993175268173218,
        -0.9999997615814209,
        1
      ],
      "type": "VEC4"
    },
    {
      "bufferView": 1,
      "componentType": 5126,
      "count": 1808,
      "max": [
        0.97267526388168335,
        0.98603230714797974
      ],
      "min": [
        0.014979733154177666,
        0.16565139591693878
      ],
      "type": "VEC2"
    },
    {
      "bufferView": 1,
      "byteOffset": 14464,
      "componentType": 5126,
      "count": 1808,
      "max": [
        0,
        0
      ],
      "min": [
        0,
        0
      ],
      "type": "VEC2"
    },
    {
      "bufferView": 0,
      "componentType": 5125,
      "count": 7356,
      "max": [
        1807
      ],
      "min": [
        0
      ],
      "type": "SCALAR"
    },
    {
      "bufferView": 2,
      "byteOffset": 43392,
      "componentType": 5126,
      "count": 913,
      "max": [
        102.96105194091797,
        500.22378540039062,
        86.570564270019531
      ],
      "min": [
        -102.96107482910156,
        74.330429077148438,
        -114.41755676269531
      ],
      "type": "VEC3"
    },
    {
      "bufferView": 2,
      "byteOffset": 54348,
      "componentType": 5126,
      "count": 913,
      "max": [
        0.9720921516418457,
        1,
        0.99979710578918457
      ],
      "min": [
        -0.9720921516418457,
        -1,
        -0.9998098611831665
      ],
      "type": "VEC3"
    },
    {
      "bufferView": 3,
      "byteOffset": 28928,
      "componentType": 5126,
      "count": 913,
      "max": [
        1,
        0.68668174743652344,
        1,
        1
      ],
      "min": [
        -0.99999982118606567,
        -0.68659263849258423,
        -0.99999982118606567,
        1
      ],
      "type": "VEC4"
    },
    {
      "bufferView": 1,
      "byteOffset": 28928,
      "componentType": 5126,
      "count": 913,
      "max": [
        0.98502033948898315,
        0.78745979070663452
      ],
      "min": [
        0.014979733154177666,
        0.014979733154177666
      ],
      "type": "VEC2"
    },
    {
      "bufferView": 1,
      "byteOffset": 36232,
      "componentType": 5126,
      "count": 913,
      "max": [
        0,
        0
      ],
      "min": [
        0,
        0
      ],
      "type": "VEC2"
    },
    {
      "bufferView": 0,
      "byteOffset": 29424,
      "componentType": 5125,
      "count": 4248,
      "max": [
        912
      ],
      "min": [
        0
      ],
      "type": "SCALAR"
    },
    {
      "bufferView": 2,
      "byteOffset": 65304,
      "componentType": 5126,
      "count": 184,
      "max": [
        119.17781829833984,
        451.14688110351562,
        66.248634338378906
      ],
      "min": [
        -119.17784118652344,
        112.16024017333984,
        -67.822715759277344
      ],
      "type": "VEC3"
    },
    {
      "bufferView": 2,
      "byteOffset": 67512,
      "componentType": 5126,
      "count": 184,
      "max": [
        0.82327157258987427,
        0.56764882802963257,
        1
      ],
      "min": [
        -0.82327175140380859,
        -0.56764858961105347,
        -1
      ],
      "type": "VEC3"
    },
    {
      "bufferView": 3,
      "byteOffset": 43536,
      "componentType": 5126,
      "count": 184,
      "max": [
        0.99999988079071045,
        0.99466758966445923,
        0.99521553516387939,
        1
      ],
      "min": [
        -0.99999326467514038,
        -0.14974687993526459,
        -0.00059205159777775407,
        1
      ],
      "type": "VEC4"
    },
    {
      "bufferView": 1,
      "byteOffset": 43536,
      "componentType": 5126,
      "count": 184,
      "max": [
        0.96773731708526611,
        0.97979247570037842
      ],
      "min": [
        0.11829952150583267,
        0.17065173387527466
      ],
      "type": "VEC2"
    },
    {
      "bufferView": 1,
      "byteOffset": 45008,
      "componentType": 5126,
      "count": 184,
      "max": [
        0,
        0
      ],
      "min": [
        0,
        0
      ],
      "type": "VEC2"
    },
    {
      "bufferView": 0,
      "byteOffset": 46416,
      "componentType": 5125,
      "count": 600,
      "max": [
        183
      ],
      "min": [
        0
      ],
      "type": "SCALAR"
    }
  ],
  "asset": {
    "extras": {
      "author": "RunemarkStudio (https://sketchfab.com/runemarkstudio)",
      "license": "CC-BY-4.0 (http://creativecommons.org/licenses/by/4.0/)",
      "source": "https://sketchfab.com/3d-models/tiny-robot-8f846c0c2c6d4081b0a62a30e04781c8",
      "title": "Tiny Robot"
    },
    "generator": "Sketchfab-4.61.0",
    "version": "2.0"
  },
  "bufferViews": [
    {
      "buffer": 0,
      "byteLength": 48816,
      "byteOffset": 0,
      "name": "floatBufferViews",
      "target": 34963
    },
    {
      "buffer": 0,
      "byteLength": 46480,
      "byteOffset": 48816,
      "byteStride": 8,
      "name": "floatBufferViews",
      "target": 34962
    },
    {
      "buffer": 0,
      "byteLength": 69720,
      "byteOffset": 95296,
      "byteStride": 12,
      "name": "floatBufferViews",
      "target": 34962
    },
    {
      "buffer": 0,
      "byteLength": 46480,
      "byteOffset": 165016,
      "byteStride": 16,
      "name": "floatBufferViews",
      "target": 34962
    }
  ],
  "buffers": [
    {
      "byteLength": 211496,
      "uri": "scene.bin"
    }
  ],
  "extensionsUsed": [
    "KHR_materials_unlit"
  ],
  "images": [
    {
      "uri": "textures/Panels_baseColor.png"
    },
    {
      "uri": "textures/Rubber_baseColor.png"
    },
    {
      "uri": "textures/Body_baseColor.png"
    }
  ],
  "materials": [
    {
      "doubleSided": true,
      "emissiveFactor": [
        0,
        0,
        0
      ],
      "extensions": {
        "KHR_materials_unlit": {}
      },
      "name": "Rubber",
      "pbrMetallicRoughness": {
        "baseColorFactor": [
          1,
          1,
          1,
          1
        ],
        "baseColorTexture": {
          "index": 1,
          "texCoord": 0
        },
        "metallicFactor": 0,
        "roughnessFactor": 1
      }
    },
    {
      "doubleSided": true,
      "emissiveFactor": [
        0,
        0,
        0
      ],
      "extensions": {
        "KHR_materials_unlit": {}
      },
      "name": "Body",
      "pbrMetallicRoughness": {
        "baseColorFactor": [
          1,
          1,
          1,
          1
        ],
        "baseColorTexture": {
          "index": 2,
          "texCoord": 0
        },
        "metallicFactor": 0,
        "roughnessFactor": 1
      }
    },
    {
      "doubleSided": false,
      "emissiveFactor": [
        0.026683947514113057,
        0.56620947229971563,
        0.61833343504000005
      ],
      "extensions": {
        "KHR_materials_unlit": {}
      },
      "name": "Panels",
      "pbrMetallicRoughness": {
        "baseColorFactor": [
          1,
          1,
          1,
          1
        ],
        "baseColorTexture": {
          "index": 0,
          "texCoord": 0
        },
        "metallicFactor": 0,
        "roughnessFactor": 1
      }
    }
  ],
  "meshes": [
    {
      "name": "Sphere.000_Rubber_0",
      "primitives": [
        {
          "attributes": {
            "NORMAL": 1,
            "POSITION": 0,
            "TANGENT": 2,
            "TEXCOORD_0": 3,
            "TEXCOORD_1": 4
          },
          "indices": 5,
          "material": 0,
          "mode": 4
        }
      ]
    },
    {
      "name": "Sphere.000_Body_0",
      "primitives": [
        {
          "attributes": {
            "NORMAL": 7,
            "POSITION": 6,
            "TANGENT": 8,
            "TEXCOORD_0": 9,
            "TEXCOORD_1": 10
          },
          "indices": 11,
          "material": 1,
          "mode": 4
        }
      ]
    },
    {
      "name": "Sphere.000_Panels_0",
      "primitives": [
        {
          "attributes": {
            "NORMAL": 13,
            "POSITION": 12,
            "TANGENT": 14,
            "TEXCOORD_0": 15,
            "TEXCOORD_1": 16
          },
          "indices": 17,
          "material": 2,
          "mode": 4
        }
      ]
    }
  ],
  "nodes": [
    {
      "children": [
        1
      ],
      "name": "RootNode (gltf orientation matrix)",
      "rotation": [
        -0.70710678118654746,
        -0,
        -0,
        0.70710678118654757
      ]
    },
    {
      "children": [
        2
      ],
      "name": "RootNode (model correction matrix)"
    },
    {
      "children": [
        3
      ],
      "matrix": [
        1,
        0,
        0,
        0,
        0,
        0,
        1,
        0,
        0,
        -1,
        0,
        0,
        0,
        0,
        0,
        1
      ],
      "name": "Robot.fbx"
    },
    {
      "children": [
        4
      ],
      "name": "RootNode"
    },
    {
      "children": [
        5,
        6,
        7
      ],
      "matrix": [
        1,
        0,
        0,
        0,
        0,
        1,
        0,
        0,
        0,
        0,
        1,
        0,
        0,
        0,
        -5.6843418860808015e-12,
        1
      ],
      "name": "Sphere.000"
    },
    {
      "mesh": 0,
      "name": "Sphere.000_Rubber_0"
    },
    {
      "mesh": 1,
      "name": "Sphere.000_Body_0"
    },
    {
      "mesh": 2,
      "name": "Sphere.000_Panels_0"
    }
  ],
  "samplers": [
    {
      "magFilter": 9729,
      "minFilter": 9987,
      "wrapS": 10497,
      "wrapT": 10497
    }
  ],
  "scene": 0,
  "scenes": [
    {
      "name": "OSG_Scene",
      "nodes": [
        0
      ]
    }
  ],
  "textures": [
    {
      "sampler": 0,
      "source": 0
    },
    {
      "sampler": 0,
      "source": 1
    },
    {
      "sampler": 0,
      "source": 2
    }
  ]
}

