{
  "accessors": [
    {
      "bufferView": 1,
      "componentType": 5126,
      "count": 228,
      "max": [
        0.34599998593330383,
        0.19200000166893005,
        0.69800001382827759
      ],
      "min": [
        -0.34599998593330383,
        -0.19200000166893005,
        -0.69800001382827759
      ],
      "type": "VEC3"
    },
    {
      "bufferView": 1,
      "byteOffset": 2736,
      "componentType": 5126,
      "count": 228,
      "max": [
        1,
        1,
        1
      ],
      "min": [
        -1,
        -1,
        -1
      ],
      "type": "VEC3"
    },
    {
      "bufferView": 0,
      "componentType": 5125,
      "count": 360,
      "max": [
        227
      ],
      "min": [
        0
      ],
      "type": "SCALAR"
    },
    {
      "bufferView": 1,
      "byteOffset": 5472,
      "componentType": 5126,
      "count": 216,
      "max": [
        0.018500000238418579,
        0.19300000369548798,
        0.69800001382827759
      ],
      "min": [
        -0.018500000238418579,
        -0.19300000369548798,
        -0.69800001382827759
      ],
      "type": "VEC3"
    },
    {
      "bufferView": 1,
      "byteOffset": 8064,
      "componentType": 5126,
      "count": 216,
      "max": [
        1,
        1,
        1
      ],
      "min": [
        -1,
        -1,
        -1
      ],
      "type": "VEC3"
    },
    {
      "bufferView": 0,
      "byteOffset": 1440,
      "componentType": 5125,
      "count": 324,
      "max": [
        215
      ],
      "min": [
        0
      ],
      "type": "SCALAR"
    },
    {
      "bufferView": 1,
      "byteOffset": 10656,
      "componentType": 5126,
      "count": 216,
      "max": [
        0.38499999046325684,
        0.19499999284744263,
        0.018500000238418579
      ],
      "min": [
        -0.38499999046325684,
        -0.19499999284744263,
        -0.018500000238418579
      ],
      "type": "VEC3"
    },
    {
      "bufferView": 1,
      "byteOffset": 13248,
      "componentType": 5126,
      "count": 216,
      "max": [
        1,
        1,
        1
      ],
      "min": [
        -1,
        -1,
        -1
      ],
      "type": "VEC3"
    },
    {
      "bufferView": 0,
      "byteOffset": 2736,
      "componentType": 5125,
      "count": 324,
      "max": [
        215
      ],
      "min": [
        0
      ],
      "type": "SCALAR"
    },
    {
      "bufferView": 1,
      "byteOffset": 15840,
      "componentType": 5126,
      "count": 216,
      "max": [
        0.38499999046325684,
        0.19499999284744263,
        0.018500000238418579
      ],
      "min": [
        -0.38499999046325684,
        -0.19499999284744263,
        -0.018500000238418579
      ],
      "type": "VEC3"
    },
    {
      "bufferView": 1,
      "byteOffset": 18432,
      "componentType": 5126,
      "count": 216,
      "max": [
        1,
        1,
        1
      ],
      "min": [
        -1,
        -1,
        -1
      ],
      "type": "VEC3"
    },
    {
      "bufferView": 0,
      "byteOffset": 4032,
      "componentType": 5125,
      "count": 324,
      "max": [
        215
      ],
      "min": [
        0
      ],
      "type": "SCALAR"
    },
    {
      "bufferView": 1,
      "byteOffset": 21024,
      "componentType": 5126,
      "count": 216,
      "max": [
        0.018500000238418579,
        0.19300000369548798,
        0.69800001382827759
      ],
      "min": [
        -0.018500000238418579,
        -0.19300000369548798,
        -0.69800001382827759
      ],
      "type": "VEC3"
    },
    {
      "bufferView": 1,
      "byteOffset": 23616,
      "componentType": 5126,
      "count": 216,
      "max": [
        1,
        1,
        1
      ],
      "min": [
        -1,
        -1,
        -1
      ],
      "type": "VEC3"
    },
    {
      "bufferView": 0,
      "byteOffset": 5328,
      "componentType": 5125,
      "count": 324,
      "max": [
        215
      ],
      "min": [
        0
      ],
      "type": "SCALAR"
    }
  ],
  "asset": {
    "extras": {
      "author": "Psychokiller1888 (https://sketchfab.com/Psychokiller1888)",
      "license": "CC-BY-4.0 (http://creativecommons.org/licenses/by/4.0/)",
      "source": "https://sketchfab.com/models/c5d2789603fd48b9851261e8c37587f7",
      "title": "Ikea Kallax 2x4"
    },
    "generator": "Sketchfab-3.18.6",
    "version": "2.0"
  },
  "bufferViews": [
    {
      "buffer": 0,
      "byteLength": 6624,
      "byteOffset": 0,
      "name": "floatBufferViews",
      "target": 34963
    },
    {
      "buffer": 0,
      "byteLength": 26208,
      "byteOffset": 6624,
      "byteStride": 12,
      "name": "floatBufferViews",
      "target": 34962
    }
  ],
  "buffers": [
    {
      "byteLength": 32832,
      "uri": "scene.bin"
    }
  ],
  "materials": [
    {
      "doubleSided": true,
      "emissiveFactor": [
        0,
        0,
        0
      ],
      "name": "Cube.002_0",
      "pbrMetallicRoughness": {
        "baseColorFactor": [
          1,
          1,
          1,
          1
        ],
        "metallicFactor": 0,
        "roughnessFactor": 0.59999999999999998
      }
    },
    {
      "doubleSided": true,
      "emissiveFactor": [
        0,
        0,
        0
      ],
      "name": "Material",
      "pbrMetallicRoughness": {
        "baseColorFactor": [
          0.80000001190000003,
          0.80000001190000003,
          0.80000001190000003,
          1
        ],
        "metallicFactor": 0,
        "roughnessFactor": 0.59999999999999998
      }
    },
    {
      "doubleSided": true,
      "emissiveFactor": [
        0,
        0,
        0
      ],
      "name": "Material.001",
      "pbrMetallicRoughness": {
        "baseColorFactor": [
          0.80000001190000003,
          0.80000001190000003,
          0.80000001190000003,
          1
        ],
        "metallicFactor": 0,
        "roughnessFactor": 0.59999999999999998
      }
    }
  ],
  "meshes": [
    {
      "name": "Cube.004_0",
      "primitives": [
        {
          "attributes": {
            "NORMAL": 1,
            "POSITION": 0
          },
          "indices": 2,
          "material": 0,
          "mode": 4
        }
      ]
    },
    {
      "name": "Cube.003_0",
      "primitives": [
        {
          "attributes": {
            "NORMAL": 4,
            "POSITION": 3
          },
          "indices": 5,
          "material": 0,
          "mode": 4
        }
      ]
    },
    {
      "name": "Cube.001_0",
      "primitives": [
        {
          "attributes": {
            "NORMAL": 7,
            "POSITION": 6
          },
          "indices": 8,
          "material": 2,
          "mode": 4
        }
      ]
    },
    {
      "name": "Cube_0",
      "primitives": [
        {
          "attributes": {
            "NORMAL": 10,
            "POSITION": 9
          },
          "indices": 11,
          "material": 1,
          "mode": 4
        }
      ]
    },
    {
      "name": "Cube.002_0",
      "primitives": [
        {
          "attributes": {
            "NORMAL": 13,
            "POSITION": 12
          },
          "indices": 14,
          "material": 0,
          "mode": 4
        }
      ]
    }
  ],
  "nodes": [
    {
      "children": [
        1
      ],
      "name": "RootNode (gltf orientation matrix)",
      "rotation": [
        -0.70710678118654746,
        -0,
        -0,
        0.70710678118654757
      ]
    },
    {
      "children": [
        2
      ],
      "name": "RootNode (model correction matrix)"
    },
    {
      "children": [
        3,
        5,
        7,
        9,
        11
      ],
      "name": "Root"
    },
    {
      "children": [
        4
      ],
      "matrix": [
        1,
        0,
        0,
        0,
        0,
        1,
        0,
        0,
        0,
        0,
        1,
        0,
        0,
        0,
        0.71650000000000003,
        1
      ],
      "name": "Cube.004"
    },
    {
      "mesh": 0,
      "name": "Cube.004_0"
    },
    {
      "children": [
        6
      ],
      "matrix": [
        1,
        0,
        0,
        0,
        0,
        1,
        0,
        0,
        0,
        0,
        1,
        0,
        -0.36450000000000005,
        0,
        0.71650000000000003,
        1
      ],
      "name": "Cube.003"
    },
    {
      "mesh": 1,
      "name": "Cube.003_0"
    },
    {
      "children": [
        8
      ],
      "matrix": [
        1,
        0,
        0,
        0,
        0,
        1,
        0,
        0,
        0,
        0,
        1,
        0,
        0,
        0,
        1.4329999999999998,
        1
      ],
      "name": "Cube.001"
    },
    {
      "mesh": 2,
      "name": "Cube.001_0"
    },
    {
      "children": [
        10
      ],
      "name": "Cube"
    },
    {
      "mesh": 3,
      "name": "Cube_0"
    },
    {
      "children": [
        12
      ],
      "matrix": [
        1,
        0,
        0,
        0,
        0,
        1,
        0,
        0,
        0,
        0,
        1,
        0,
        0.36450000000000005,
        0,
        0.71650000000000003,
        1
      ],
      "name": "Cube.002"
    },
    {
      "mesh": 4,
      "name": "Cube.002_0"
    }
  ],
  "scene": 0,
  "scenes": [
    {
      "name": "OSG_Scene",
      "nodes": [
        0
      ]
    }
  ]
}

